<svg width="150" height="150" viewBox="0 0 150 150" fill="none" xmlns="http://www.w3.org/2000/svg">
<path d="M103.988 75C106.963 75 109.418 77.4262 108.954 80.3646C108.226 84.9697 106.566 89.3979 104.055 93.3702C100.579 98.867 95.6158 103.265 89.7407 106.054C83.8656 108.843 77.32 109.908 70.8638 109.125C64.4077 108.343 58.306 105.745 53.2673 101.633C48.2285 97.5216 44.4595 92.065 42.3979 85.897C40.3363 79.7291 40.0667 73.1028 41.6204 66.7877C43.174 60.4727 46.4873 54.7279 51.1753 50.2205C54.5631 46.9633 58.5684 44.4488 62.9339 42.8123C65.7195 41.768 68.5887 43.6862 69.1854 46.6007C69.7822 49.5151 67.8611 52.3078 65.1572 53.5485C62.7634 54.6468 60.5587 56.1435 58.6419 57.9864C55.4231 61.0812 53.1483 65.0255 52.0815 69.3615C51.0148 73.6974 51.1999 78.247 52.6154 82.4819C54.0309 86.7168 56.6187 90.4633 60.0783 93.2864C63.5379 96.1094 67.7273 97.8931 72.1601 98.4304C76.5929 98.9677 81.0871 98.2365 85.121 96.3217C89.1548 94.4069 92.5627 91.3871 94.949 87.613C96.37 85.3655 97.394 82.9054 97.9899 80.34C98.663 77.4422 101.014 75 103.988 75Z" fill="url(#paint0_linear_3611_37051)"/>
<defs>
<linearGradient id="paint0_linear_3611_37051" x1="73.7618" y1="-87.207" x2="-191.946" y2="123.526" gradientUnits="userSpaceOnUse">
<stop stop-color="#F83600"/>
<stop offset="1" stop-color="#F9D423"/>
</linearGradient>
</defs>
</svg>
